<svg  viewBox="0 0 662 157" fill="none" xmlns="http://www.w3.org/2000/svg">
<path d="M35.1721 78.7817C35.1721 65.5835 39.183 55.4113 47.2048 48.2651C54.1802 42.0422 63.0546 38.9307 73.8278 38.9307C88.2437 38.9307 98.7844 43.1021 105.45 51.445C109.131 56.1294 111.108 60.8308 111.379 65.5493H93.4753C92.3128 61.9249 90.8208 59.1896 88.9994 57.3432C85.7442 54.0607 80.9195 52.4195 74.5253 52.4195C68.0149 52.4195 62.8802 54.7446 59.1212 59.3947C55.3622 64.0107 53.4827 70.5585 53.4827 79.0382C53.4827 87.5178 55.4591 93.8776 59.4118 98.1174C63.4034 102.323 68.4606 104.426 74.5835 104.426C80.8614 104.426 85.6473 102.614 88.9413 98.9893C90.7627 97.0404 92.274 94.1169 93.4753 90.219H111.205C109.655 98.4593 105.682 105.161 99.2882 110.324C92.9328 115.487 84.7754 118.069 74.816 118.069C62.4927 118.069 52.8045 114.581 45.7516 107.606C38.6986 100.596 35.1721 90.9883 35.1721 78.7817Z" fill="black"/>
<path fill-rule="evenodd" clip-rule="evenodd" d="M76.5 140.931C110.98 140.931 138.931 112.98 138.931 78.5C138.931 44.0203 110.98 16.069 76.5 16.069C42.0203 16.069 14.069 44.0203 14.069 78.5C14.069 112.98 42.0203 140.931 76.5 140.931ZM76.5 155C118.75 155 153 120.75 153 78.5C153 36.2502 118.75 2 76.5 2C34.2502 2 0 36.2502 0 78.5C0 120.75 34.2502 155 76.5 155Z" fill="black"/>
<path d="M265.28 32.0087C261.697 27.7409 256.569 25.607 249.896 25.607C240.764 25.607 234.547 29.0002 231.245 35.7868C229.349 39.7048 228.225 45.9316 227.874 54.4672H198.686C199.178 41.5238 201.531 31.0642 205.746 23.0882C213.754 7.90597 227.979 0.31484 248.421 0.31484C264.578 0.31484 277.433 4.79256 286.986 13.748C296.54 22.6335 301.317 34.4225 301.317 49.115C301.317 60.3792 297.945 70.3841 291.201 79.1297C286.776 84.9367 279.505 91.4084 269.39 98.5448L257.377 107.045C249.861 112.363 244.698 116.211 241.888 118.59C239.148 120.968 236.83 123.732 234.933 126.88H301.633V153.222H197C197.281 142.307 199.634 132.338 204.06 123.312C208.345 113.167 218.46 102.428 234.407 91.0936C248.245 81.2286 257.202 74.1622 261.276 69.8944C267.528 63.2478 270.654 55.9715 270.654 48.0655C270.654 41.6288 268.863 36.2765 265.28 32.0087Z" fill="black"/>
<path d="M369.808 157C350.349 157 336.686 150.213 328.818 136.64C321.021 123.067 317.122 103.722 317.122 78.6049C317.122 53.4877 321.021 34.1076 328.818 20.4646C336.686 6.82152 350.349 0 369.808 0C389.266 0 402.929 6.82152 410.797 20.4646C418.594 34.1076 422.493 53.4877 422.493 78.6049C422.493 103.722 418.559 123.067 410.691 136.64C402.894 150.213 389.266 157 369.808 157ZM387.404 118.695C390.144 109.459 391.514 96.096 391.514 78.6049C391.514 60.2743 390.109 46.7012 387.299 37.8857C384.559 29.0702 378.729 24.6624 369.808 24.6624C360.886 24.6624 354.985 29.0702 352.105 37.8857C349.225 46.7012 347.785 60.2743 347.785 78.6049C347.785 96.096 349.225 109.494 352.105 118.799C354.985 128.035 360.886 132.652 369.808 132.652C378.729 132.652 384.595 128 387.404 118.695Z" fill="black"/>
<path d="M505.525 32.0087C501.942 27.7409 496.814 25.607 490.141 25.607C481.009 25.607 474.792 29.0002 471.49 35.7868C469.593 39.7048 468.47 45.9316 468.118 54.4672H438.931C439.422 41.5238 441.776 31.0642 445.99 23.0882C453.999 7.90597 468.224 0.31484 488.666 0.31484C504.822 0.31484 517.678 4.79256 527.231 13.748C536.785 22.6335 541.562 34.4225 541.562 49.115C541.562 60.3792 538.19 70.3841 531.446 79.1297C527.02 84.9367 519.75 91.4084 509.634 98.5448L497.622 107.045C490.106 112.363 484.942 116.211 482.133 118.59C479.393 120.968 477.075 123.732 475.178 126.88H541.878V153.222H437.245C437.526 142.307 439.879 132.338 444.305 123.312C448.59 113.167 458.705 102.428 474.651 91.0936C488.49 81.2286 497.446 74.1622 501.521 69.8944C507.773 63.2478 510.899 55.9715 510.899 48.0655C510.899 41.6288 509.107 36.2765 505.525 32.0087Z" fill="black"/>
<path d="M591.929 31.379C588.557 35.8567 586.941 41.8387 587.082 49.3249H559.053C559.334 41.7687 560.634 34.5974 562.952 27.8108C565.41 21.8639 569.274 16.3717 574.542 11.3342C578.476 7.76604 583.148 5.03743 588.557 3.1484C593.966 1.25936 600.604 0.31484 608.472 0.31484C623.083 0.31484 634.85 4.09291 643.771 11.6491C652.763 19.1352 657.258 29.2101 657.258 41.8737C657.258 50.8291 654.589 58.3852 649.25 64.5421C645.878 68.3901 642.366 71.0138 638.713 72.4131C641.453 72.4131 645.387 74.7569 650.515 79.4445C658.172 86.5109 662 96.166 662 108.41C662 121.283 657.504 132.617 648.513 142.412C639.591 152.137 626.35 157 608.788 157C587.152 157 572.119 149.969 563.689 135.906C559.264 128.42 556.805 118.625 556.313 106.521H585.817C585.817 112.608 586.801 117.645 588.767 121.633C592.42 128.979 599.059 132.652 608.683 132.652C614.583 132.652 619.711 130.658 624.067 126.67C628.492 122.613 630.705 116.805 630.705 109.249C630.705 99.2444 626.631 92.5628 618.482 89.2045C613.846 87.3155 606.54 86.371 596.565 86.371V64.9619C606.329 64.822 613.143 63.8774 617.007 62.1283C623.68 59.1898 627.017 53.2429 627.017 44.2874C627.017 38.4804 625.296 33.7578 621.854 30.1197C618.482 26.4815 613.705 24.6624 607.523 24.6624C600.428 24.6624 595.23 26.9013 591.929 31.379Z" fill="black"/>
</svg>
