<svg viewBox="0 0 1454 823" fill="none" xmlns="http://www.w3.org/2000/svg">
<path d="M42.3479 383.802L47.854 357.966C74.5373 361.566 99.7382 367.919 114.986 386.132L100.585 409.215C87.6672 393.755 66.4899 386.767 42.3479 383.802ZM41.9243 253.774L52.7247 225.608C73.2666 236.409 95.9263 249.327 110.75 259.915L101.009 281.94C85.3377 271.986 60.7721 260.127 41.9243 253.774ZM3.17003 316.459L3.17003 302.482L69.4547 302.482C101.644 302.482 150.775 282.575 175.129 216.502C180.847 222.22 191.647 230.267 199.059 234.079C178.306 284.904 135.739 310.529 114.774 316.458C136.375 322.176 177.67 345.471 199.059 395.661C193.342 399.05 182.541 407.944 177.247 413.45C152.893 349.495 101.432 330.224 69.6665 330.224L3.17003 330.224L3.17003 316.459Z" fill="white"/>
<path d="M68.6076 156.359L68.6076 50.049L90.8437 50.049L90.8437 156.359L68.6076 156.359ZM169.199 158.9L169.199 49.6255L191.436 49.6255L191.436 158.9L169.199 158.9ZM112.021 170.124L112.021 35.225L199.483 35.225L199.483 61.2729L134.469 61.2729L134.469 145.135L199.483 145.135L199.483 170.124L112.021 170.124ZM25.4061 104.263C50.1835 121.628 78.1374 154.241 96.7734 189.183C90.8437 192.572 81.5258 199.56 76.2315 205.066C58.4426 168.43 26.465 134.334 0.416979 118.663L0.416978 92.1917C33.0299 69.1085 59.925 35.0132 73.6902 0.917843C80.0433 7.271 88.726 13.2007 96.5616 17.6479C79.408 50.2608 50.607 85.8385 25.4061 104.263Z" fill="white"/>
<path d="M1070.8 173.348L1096.64 178.854C1093.04 205.537 1086.68 230.738 1068.47 245.986L1045.39 231.585C1060.85 218.667 1067.84 197.49 1070.8 173.348ZM1200.83 172.924L1229 183.725C1218.19 204.267 1205.28 226.926 1194.69 241.75L1172.66 232.009C1182.62 216.338 1194.48 191.772 1200.83 172.924ZM1138.15 134.17H1152.12V200.455C1152.12 232.644 1172.03 281.775 1238.1 306.129C1232.38 311.847 1224.34 322.647 1220.52 330.059C1169.7 309.306 1144.07 266.739 1138.15 245.774C1132.43 267.375 1109.13 308.67 1058.94 330.059C1055.55 324.342 1046.66 313.541 1041.15 308.247C1105.11 283.893 1124.38 232.432 1124.38 200.667V134.17L1138.15 134.17Z" fill="white"/>
<path d="M1298.24 199.608H1404.55V221.844H1298.24V199.608ZM1295.7 300.199L1404.98 300.199V322.436L1295.7 322.436V300.199ZM1284.48 243.021H1419.38V330.483H1393.33V265.469H1309.47V330.483L1284.48 330.483V243.021ZM1350.34 156.406C1332.98 181.183 1300.36 209.137 1265.42 227.773C1262.03 221.844 1255.04 212.526 1249.54 207.231C1286.17 189.443 1320.27 157.465 1335.94 131.417H1362.41C1385.49 164.03 1419.59 190.925 1453.69 204.69C1447.33 211.043 1441.4 219.726 1436.96 227.562C1404.34 210.408 1368.76 181.607 1350.34 156.406Z" fill="white"/>
<path d="M636.103 396.77V420.277H597.137V466.867H636.527V490.374H567.489V396.77H636.103ZM475.792 523.41H648.809V547.552H475.792V523.41ZM489.768 396.77H558.171V420.277H519.417V466.655C534.664 466.232 547.794 464.961 558.806 462.843L560.924 486.562C552.171 488.115 543.488 489.174 534.876 489.738C526.405 490.162 515.464 490.374 502.051 490.374H489.768V396.77Z" fill="white"/>
<path d="M821.409 379.193V482.75H791.549V445.902H760.207V421.971H791.549V379.193H821.409ZM662.156 464.961C701.969 455.502 723.852 438.207 727.805 413.077L672.321 413.077V389.57H759.995C759.995 415.406 752.795 436.442 738.394 452.678C724.135 468.773 702.463 480.491 673.38 487.833L662.156 464.961ZM693.71 490.797L723.146 490.797V507.527L791.972 507.527V490.797H821.409V568.73H693.71V490.797ZM791.972 545.011V530.399H723.146V545.011H791.972Z" fill="white"/>
<path d="M1011.16 379.193V570.424H982.784V379.193L1011.16 379.193ZM842.803 510.28C861.297 499.268 874.992 486.985 883.887 473.432C892.781 459.879 898.075 443.713 899.769 424.936H854.027V401.218H929.206C929.206 419.995 927.3 436.725 923.488 451.408H942.336V383.217H970.078V562.165H942.336V474.914H914.805C903.793 497.503 885.369 516.281 859.533 531.246L842.803 510.28Z" fill="white"/>
<path d="M1252.69 470.255V493.55H1181.11V506.892H1232.14V568.518H1099.79V506.892H1151.25V493.55H1079.88V470.255H1252.69ZM1086.45 442.301C1105.65 441.454 1120.26 438.843 1130.28 434.466C1140.45 429.948 1146.59 424.583 1148.71 418.371H1095.97V395.5H1151.25V379.617H1181.11V395.5H1236.59V418.371H1183.65C1185.77 424.583 1191.84 429.948 1201.86 434.466C1212.03 438.843 1226.71 441.454 1245.91 442.301L1237.44 464.326C1219.93 463.338 1205.18 460.655 1193.18 456.278C1181.32 451.902 1172.35 446.113 1166.28 438.913C1160.07 446.113 1151.04 451.902 1139.18 456.278C1127.32 460.655 1112.63 463.338 1095.13 464.326L1086.45 442.301ZM1203.13 545.223V530.187H1128.8V545.223H1203.13Z" fill="white"/>
<path d="M1351.59 381.735C1373.61 381.735 1390.7 384.558 1402.84 390.206C1415.12 395.853 1421.26 403.9 1421.26 414.348C1421.26 424.795 1415.12 432.842 1402.84 438.49C1390.7 443.996 1373.61 446.749 1351.59 446.749C1329.42 446.749 1312.2 443.996 1299.92 438.49C1287.77 432.842 1281.7 424.795 1281.7 414.348C1281.7 403.9 1287.77 395.853 1299.92 390.206C1312.2 384.558 1329.42 381.735 1351.59 381.735ZM1264.97 454.796L1437.78 454.796V478.303L1264.97 478.303V454.796ZM1284.46 487.621L1417.03 487.621V538.234H1313.89V547.341H1422.11V569.365H1284.67V517.692H1388.01V509.645H1284.46V487.621ZM1312.62 414.348C1312.62 418.301 1315.66 421.124 1321.73 422.818C1327.94 424.513 1337.89 425.36 1351.59 425.36C1365.14 425.36 1374.95 424.513 1381.03 422.818C1387.24 421.124 1390.34 418.301 1390.34 414.348C1390.34 410.536 1387.24 407.783 1381.03 406.088C1374.81 404.253 1365 403.335 1351.59 403.335C1338.18 403.335 1328.29 404.253 1321.94 406.088C1315.73 407.783 1312.62 410.536 1312.62 414.348Z" fill="white"/>
<path d="M1102.35 745.339V769.269H1030.56V822.635H1000.7V769.269H929.547V745.339H1102.35ZM937.806 713.573C950.513 712.161 961.313 709.549 970.208 705.737C979.102 701.784 985.949 697.196 990.75 691.972C995.691 686.748 998.797 681.383 1000.07 675.877H944.795V652.582H1000.7V631.829H1030.56V652.582H1086.89V675.877H1031.41C1032.82 681.242 1035.93 686.537 1040.73 691.76C1045.67 696.984 1052.59 701.572 1061.48 705.525C1070.38 709.478 1081.04 712.161 1093.46 713.573L1083.08 736.656C1067.27 734.962 1053.65 731.22 1042.21 725.432C1030.92 719.644 1022.09 712.443 1015.74 703.831C1009.39 712.443 1000.49 719.644 989.055 725.432C977.62 731.22 963.925 734.962 947.972 736.656L937.806 713.573Z" fill="white"/>
<path d="M1223.07 649.194V673.76H1186.01V681.383C1186.01 691.407 1187.63 701.431 1190.88 711.455C1194.13 721.479 1199.21 730.656 1206.13 738.985C1213.04 747.315 1221.59 753.809 1231.75 758.468L1215.66 781.975C1205.35 777.316 1196.53 770.681 1189.19 762.069C1181.84 753.457 1176.06 743.503 1171.82 732.209C1167.44 744.774 1161.44 755.786 1153.82 765.245C1146.34 774.563 1137.3 781.693 1126.71 786.634L1109.98 763.339C1120.29 758.539 1128.9 751.762 1135.82 743.009C1142.88 734.115 1148.03 724.373 1151.28 713.785C1154.67 703.055 1156.36 692.254 1156.36 681.383V673.76H1117.61V649.194H1223.07ZM1235.14 631.193H1264.79V703.196H1291.89V727.55H1264.79V822.424H1235.14V631.193Z" fill="white"/>
</svg>
