<svg  viewBox="0 0 185 185" fill="none" xmlns="http://www.w3.org/2000/svg">
<g clip-path="url(#clip0_68_116)">
<path d="M157.541 70.5959L148.574 109.677H176.727L185 70.5959H157.541Z" fill="white"/>
<path d="M69.0624 109.38L84.155 38.2873H103.169C110.479 38.4638 117.012 44.2769 115.073 53.6033C112.605 65.4557 101.98 70.3809 95.0007 70.5463L91.8555 70.7118L84.0834 109.38C84.0834 109.38 89.3823 109.595 92.1695 109.595C98.4159 109.595 105.544 116.152 103.494 127.448C102.239 134.364 99.165 146.056 99.165 146.056H61.2682L66.1761 122.942H20.7165C15.3074 149.818 10.5979 173.633 8.5488 184.995L100.503 184.956L131.058 184.995L140.389 150.596C147.538 126.461 151.559 92.4972 133.305 85.6417C173.78 61.3523 163.479 0 131.504 0H45.7846C45.7846 0 39.1361 32.248 31.3805 70.3202H7.95391L0 109.402L69.0624 109.38Z" fill="white"/>
</g>
<defs>
<clipPath id="clip0_68_116">
<rect width="185" height="185" fill="white"/>
</clipPath>
</defs>
</svg>
