<svg  viewBox="0 0 53 43" fill="none" xmlns="http://www.w3.org/2000/svg">
<path d="M9.57696 42.6681L35.6352 1.01949L43.0963 1.01949L16.8154 42.6681L9.57696 42.6681ZM0 11.6544C0 5.41821 4.89984 0.295654 11.0803 0.295654C17.2608 0.295654 22.0493 5.41821 22.0493 11.6544C22.0493 17.7792 17.2608 23.0131 11.0803 23.0131C4.89984 23.0131 0 17.7792 0 11.6544ZM6.79296 11.6544C6.79296 14.1043 8.79744 16.1088 11.0803 16.1088C13.3632 16.1088 15.2563 14.1043 15.2563 11.6544C15.2563 9.14877 13.3632 7.19998 11.0803 7.19998C8.79744 7.19998 6.79296 9.14877 6.79296 11.6544ZM30.0672 31.5878C30.0672 25.4073 34.967 20.2291 41.1475 20.2291C47.328 20.2291 52.1165 25.4073 52.1165 31.5878C52.1165 37.7126 47.328 42.9465 41.1475 42.9465C34.967 42.9465 30.0672 37.7126 30.0672 31.5878ZM36.9158 31.5878C36.9158 34.0934 38.8646 36.0422 41.1475 36.0422C43.4304 36.0422 45.3235 34.0934 45.3235 31.5878C45.3235 29.0822 43.4304 27.1334 41.1475 27.1334C38.8646 27.1334 36.9158 29.0822 36.9158 31.5878Z" fill="black"/>
</svg>
