<svg viewBox="0 0 74 280" fill="none" xmlns="http://www.w3.org/2000/svg">
<path d="M34.2275 230.682C24.5159 214.684 -2.67714e-06 218.754 -2.1246e-06 231.395L-6.43346e-07 265.282C-6.43346e-07 265.282 60.0844 277.53 73.9326 280L73.9164 243.647L73.9326 231.567L60.1857 227.881C50.539 225.055 36.9663 223.466 34.2275 230.682ZM58.3706 259.158L15.3027 250.112L15.3027 242.595C15.3756 239.705 17.6971 237.123 21.4246 237.887C26.1608 238.86 28.1299 243.063 28.1947 245.821L28.2595 247.062L43.7121 250.132C43.7121 250.132 43.7972 248.038 43.7972 246.938C43.7972 244.468 46.4186 241.65 50.932 242.458C53.6951 242.955 58.3706 244.172 58.3706 244.172L58.3706 259.154L58.3706 259.158Z" fill="#231916"/>
<path d="M1.573 95.7805L1.573 69.2135L73.9326 69.2615L73.9326 89.343L62.7382 88.9026L62.7382 101.546L73.9326 105.853L73.9326 125.843L1.573 95.7805ZM44.6951 88.266L22.0038 85.6718L22.0237 87.0329L44.699 95.144L44.699 88.266L44.6951 88.266Z" fill="#231916"/>
<path d="M1.573 157.331L1.87157 114.831L19.9973 119.316L19.85 141.14L29.9619 143.466L30.1012 122.33L46.5429 125.826L46.4036 147.102L55.8825 149.24L56.0377 126.679L73.9326 130.526L73.63 173.034C35.6627 165.575 1.573 157.331 1.573 157.331Z" fill="#231916"/>
<path d="M1.573 50.1472L1.573 31.2053L33.285 37.321L33.2929 37.1852L1.573 20.4269L1.573 -1.52588e-05L37.1247 20.5068L73.9326 12.5188L73.9326 33.4927L46.3704 37.2331L46.3704 40.4387L73.9326 45.5564L73.9326 64.4944L1.573 50.1472Z" fill="#231916"/>
<path d="M3.98312 172.74C3.41956 173.525 2.95592 174.412 2.58421 175.404C1.84878 177.384 1.70489 179.117 1.573 181.769L1.573 210.216C1.573 210.216 66.934 225.124 73.8966 226.517L73.8966 206.597L48.2606 200.835L48.2606 198.219C48.3405 196.62 48.2606 195.814 48.2606 195.814L73.9326 194.652L73.9326 175.015L42.2373 178.91L42.0374 178.898C41.9935 178.74 41.9375 178.591 41.8776 178.445C40.5506 174.663 35.5585 168.91 21.6453 167.076C8.69144 165.367 5.37003 170.667 3.98711 172.732L3.98312 172.74ZM24.9947 185.538L32.6528 193.988L32.5608 198.155L17.5286 195.045L17.5485 190.446C17.5485 187.842 20.4623 184.405 24.9947 185.534C29.5272 186.668 32.6528 188.478 32.6528 193.984L24.9947 185.538Z" fill="#231916"/>
</svg>
